<svg xmlns="http://www.w3.org/2000/svg" viewBox="0 0 128 128" width="128" height="128">
  <defs>
    <clipPath id="rounded">
      <rect width="128" height="128" rx="16"/>
    </clipPath>
  </defs>
  <rect width="128" height="128" rx="16" fill="#1A1A1A"/>
  <g clip-path="url(#rounded)">
  <path d="M20.48 20.83 L88.78 18.45 L90.92 91.34 L21.51 90.33" stroke="#1A1A1A" stroke-width="0" fill="none"/>
  <path d="M18.65 19.47 C40.65 17.99 59.95 19.41 90.30 19.54 M20.63 19.42 C43.65 19.62 65.71 20.48 89.50 19.51 M91.35 18.85 C89.68 45.97 90.01 72.90 90.54 90.38 M89.63 20.57 C89.87 45.45 90.38 72.20 89.74 89.67 M89.59 89.06 C68.78 91.16 49.72 91.43 20.86 91.06 M89.61 90.24 C70.77 89.63 50.83 90.18 19.84 90.43 M19.89 91.10 C19.55 66.48 20.40 41.74 20.42 20.49 M19.44 90.60 C20.17 72.62 19.92 57.34 20.78 20.75" stroke="#B4B4B4" stroke-width="2" fill="none"/>
  <path d="M28.78 33.42 C35.76 34.85 43.78 33.46 57.13 34.08 M27.88 34.18 C40.05 34.04 52.15 34.51 58.48 33.74" stroke="#B4B4B4" stroke-width="1.5" fill="none"/>
  <path d="M28.75 43.47 C34.18 43.85 40.61 44.42 48.00 43.77 M28.33 43.76 C35.22 44.48 42.34 44.26 48.32 43.74" stroke="#7B7B7B" stroke-width="1.5" fill="none"/>
  <path d="M28.14 54.30 C29.98 53.96 31.47 53.90 34.19 54.21 M27.97 53.97 C29.96 53.87 31.98 54.06 33.89 54.12" stroke="#B4B4B4" stroke-width="1.5" fill="none"/>
  <path d="M37.67 37.21 L108.72 38.71 L107.95 107.50 L37.88 106.51" stroke="#FCFCFC" stroke-width="0" fill="none"/>
  <path d="M38.63 36.72 C58.85 39.39 78.42 36.79 107.38 37.36 M38.04 38.17 C58.53 38.00 78.14 38.22 107.80 37.22 M108.15 38.42 C107.81 56.87 108.48 74.58 108.20 108.47 M107.24 38.34 C108.05 53.53 108.70 68.61 107.80 108.69 M107.72 108.46 C93.69 108.14 77.76 109.72 38.56 108.71 M107.68 108.71 C91.15 109.27 74.47 109.03 37.79 108.29 M36.47 108.96 C36.61 88.89 37.34 71.74 37.65 37.15 M37.47 107.26 C38.60 85.13 38.68 61.03 37.80 38.66" stroke="#7B7B7B" stroke-width="2" fill="none"/>
  <path d="M45.19 52.68 C54.96 51.01 65.47 51.87 82.38 52.94 M45.67 51.91 C57.25 51.73 68.19 52.04 82.41 51.69" stroke="#7B7B7B" stroke-width="1.5" fill="none"/>
  <path d="M45.56 62.19 C52.39 62.12 59.01 62.38 71.36 62.20 M46.08 61.69 C55.92 61.82 65.41 62.13 72.17 62.03" stroke="#D0D0D0" stroke-width="1.5" fill="none"/>
  <path d="M45.79 72.94 C64.90 71.97 81.81 71.90 92.65 71.88 M45.72 72.32 C57.95 71.96 70.85 71.49 92.13 71.55" stroke="#7B7B7B" stroke-width="1.5" fill="none"/>
  <path d="M45.56 81.87 C53.31 81.22 59.20 82.88 65.04 81.32 M45.50 81.85 C51.59 82.42 58.05 82.47 65.86 81.94" stroke="#D0D0D0" stroke-width="1.5" fill="none"/>
  <path d="M46.87 92.53 C56.86 92.67 68.80 91.22 78.38 91.51 M45.80 91.51 C55.37 92.05 64.89 91.73 77.72 91.69" stroke="#7B7B7B" stroke-width="1.5" fill="none"/>
  </g>
</svg>
